<svg width="400" height="286" viewBox="0 0 400 286" fill="none" xmlns="http://www.w3.org/2000/svg">
<path d="M348 6L348 227C348 229.761 345.761 232 343 232L5.99999 232C3.23858 232 0.99999 229.761 0.99999 227L1 5.99998C1 3.23856 3.23859 0.999985 6 0.999985L343 1C345.761 1 348 3.23858 348 6Z" fill="#F8F6EF" stroke="#2C1929" stroke-width="2"/>
<path d="M373 15L373 253C373 255.761 370.761 258 368 258L5.99999 258C3.23858 258 0.999989 255.761 0.999989 253L1 15C1 12.2386 3.23859 9.99998 6 9.99998L368 10C370.761 10 373 12.2386 373 15Z" fill="#F8F6EF" stroke="#2C1929" stroke-width="2"/>
<path d="M399 25.0002L399 280C399 282.762 396.761 285 394 285L5.99999 285C3.23857 285 0.999988 282.762 0.999989 280L1 25.0002C1 22.2388 3.23859 20.0002 6 20.0002L394 20.0002C396.761 20.0002 399 22.2388 399 25.0002Z" fill="#F9F4E6" stroke="#2C1929" stroke-width="2"/>
<path d="M38.95 205L48.4 176.85H55.25L64.9 205H60.45L57.75 196.6H46.05L43.35 205H38.95ZM51.9 178.6L47.15 193.3H56.65L51.9 178.6ZM74.9355 205.5C73.2022 205.5 71.8189 205.184 70.7855 204.55C69.7855 203.884 69.0355 203.017 68.5355 201.95C68.0689 200.884 67.7522 199.75 67.5855 198.55C67.4522 197.35 67.3855 196.184 67.3855 195.05V184.55H71.4855V195.05C71.4855 196.25 71.6022 197.367 71.8355 198.4C72.0689 199.434 72.5355 200.267 73.2355 200.9C73.9689 201.5 75.0689 201.8 76.5355 201.8C77.9355 201.8 79.0189 201.484 79.7855 200.85C80.5522 200.217 81.0855 199.4 81.3855 198.4C81.7189 197.4 81.9022 196.35 81.9355 195.25L81.9855 184.55H86.2355V205H82.6855L81.9855 200.75H81.8855C81.7522 201.184 81.4355 201.784 80.9355 202.55C80.4355 203.284 79.7022 203.967 78.7355 204.6C77.7689 205.2 76.5022 205.5 74.9355 205.5ZM99.2418 205.5C96.2418 205.5 94.0418 204.534 92.6418 202.6C91.2418 200.634 90.5418 198.134 90.5418 195.1C90.5418 191.967 91.2418 189.434 92.6418 187.5C94.0751 185.534 96.2751 184.55 99.2418 184.55C100.575 184.55 101.692 184.767 102.592 185.2C103.492 185.634 104.208 186.15 104.742 186.75C105.308 187.35 105.708 187.9 105.942 188.4C106.208 188.9 106.358 189.217 106.392 189.35H106.492L106.542 176.85H110.792V205H107.192L106.542 200.9H106.442C106.375 201.034 106.192 201.35 105.892 201.85C105.625 202.317 105.208 202.834 104.642 203.4C104.108 203.967 103.392 204.467 102.492 204.9C101.592 205.3 100.508 205.5 99.2418 205.5ZM100.442 201.9C102.375 201.9 103.858 201.284 104.892 200.05C105.925 198.784 106.442 197.117 106.442 195.05C106.442 193.05 105.942 191.434 104.942 190.2C103.975 188.934 102.542 188.3 100.642 188.3C99.1751 188.3 97.9918 188.634 97.0918 189.3C96.2251 189.934 95.5918 190.767 95.1918 191.8C94.8251 192.834 94.6418 193.917 94.6418 195.05C94.6418 196.217 94.8085 197.334 95.1418 198.4C95.5085 199.434 96.1085 200.284 96.9418 200.95C97.8085 201.584 98.9751 201.9 100.442 201.9ZM117.996 182.3C117.096 182.334 116.496 182.117 116.196 181.65C115.896 181.184 115.746 180.6 115.746 179.9C115.746 179.3 115.896 178.767 116.196 178.3C116.496 177.834 117.096 177.6 117.996 177.6C118.863 177.6 119.446 177.834 119.746 178.3C120.08 178.767 120.246 179.3 120.246 179.9C120.246 180.6 120.08 181.184 119.746 181.65C119.446 182.084 118.863 182.3 117.996 182.3ZM115.896 205V184.55H120.046V205H115.896ZM130.956 205C129.523 205 128.473 204.634 127.806 203.9C127.173 203.167 126.856 202.05 126.856 200.55V187.55H123.706V184.55C124.74 184.55 125.506 184.467 126.006 184.3C126.54 184.1 126.89 183.634 127.056 182.9C127.256 182.134 127.356 180.934 127.356 179.3H130.806V184.55H135.506V187.55H130.806V201.7H135.556V205H130.956ZM40.25 243V222.55H44.1L44.45 228.1C44.65 227.2 45.0333 226.334 45.6 225.5C46.2 224.634 47.0167 223.934 48.05 223.4C49.1167 222.834 50.4667 222.55 52.1 222.55H52.95V227.15H52.05C50.0167 227.15 48.45 227.417 47.35 227.95C46.25 228.45 45.4833 229.2 45.05 230.2C44.6167 231.167 44.4 232.367 44.4 233.8V243H40.25ZM65.0715 243.5C62.7715 243.5 60.8882 243 59.4215 242C57.9548 240.967 56.8715 239.65 56.1715 238.05C55.4715 236.45 55.1215 234.767 55.1215 233C55.0882 231.034 55.4548 229.25 56.2215 227.65C57.0215 226.05 58.1548 224.784 59.6215 223.85C61.1215 222.917 62.9048 222.45 64.9715 222.45C66.7382 222.45 68.3215 222.85 69.7215 223.65C71.1548 224.417 72.2882 225.517 73.1215 226.95C73.9548 228.35 74.4048 230.017 74.4715 231.95C74.4715 232.05 74.4715 232.25 74.4715 232.55C74.5048 232.817 74.5215 233.05 74.5215 233.25H59.0715C59.0715 235.384 59.5882 237.05 60.6215 238.25C61.6882 239.417 63.1548 240 65.0215 240C66.4215 240 67.6048 239.65 68.5715 238.95C69.5715 238.217 70.1882 237.25 70.4215 236.05H74.4715C74.1715 238.184 73.2048 239.967 71.5715 241.4C69.9382 242.8 67.7715 243.5 65.0715 243.5ZM59.2215 231.2H70.3215C70.2882 230.834 70.1882 230.35 70.0215 229.75C69.8548 229.15 69.5715 228.567 69.1715 228C68.8048 227.4 68.2715 226.9 67.5715 226.5C66.8715 226.1 65.9715 225.9 64.8715 225.9C63.5048 225.9 62.4215 226.2 61.6215 226.8C60.8548 227.367 60.2715 228.067 59.8715 228.9C59.5048 229.7 59.2882 230.467 59.2215 231.2ZM90.573 243.5C89.273 243.5 88.173 243.3 87.273 242.9C86.4064 242.467 85.6897 241.967 85.123 241.4C84.5897 240.834 84.1897 240.317 83.923 239.85C83.6897 239.35 83.5397 239.034 83.473 238.9H83.373V251.75H79.123V222.55H82.723L83.423 227.35H83.523C83.5564 227.217 83.6897 226.9 83.923 226.4C84.1564 225.9 84.5397 225.35 85.073 224.75C85.6064 224.15 86.3064 223.634 87.173 223.2C88.073 222.767 89.1897 222.55 90.523 222.55C93.523 222.55 95.7397 223.534 97.173 225.5C98.6064 227.467 99.323 230 99.323 233.1C99.323 236.2 98.5897 238.717 97.123 240.65C95.6897 242.55 93.5064 243.5 90.573 243.5ZM89.473 239.9C90.9397 239.9 92.0897 239.584 92.923 238.95C93.7897 238.284 94.3897 237.434 94.723 236.4C95.0897 235.334 95.273 234.217 95.273 233.05C95.273 231.917 95.073 230.834 94.673 229.8C94.3064 228.767 93.673 227.934 92.773 227.3C91.9064 226.634 90.7397 226.3 89.273 226.3C87.3397 226.3 85.8897 226.934 84.923 228.2C83.9564 229.434 83.473 231.05 83.473 233.05C83.473 235.117 83.973 236.784 84.973 238.05C86.0064 239.284 87.5064 239.9 89.473 239.9ZM112.192 243.5C108.792 243.5 106.258 242.517 104.592 240.55C102.925 238.584 102.092 236.084 102.092 233.05C102.058 229.984 102.892 227.467 104.592 225.5C106.292 223.534 108.825 222.534 112.192 222.5C115.458 222.5 117.942 223.467 119.642 225.4C121.342 227.334 122.192 229.884 122.192 233.05C122.192 235.017 121.825 236.8 121.092 238.4C120.392 239.967 119.292 241.217 117.792 242.15C116.325 243.05 114.458 243.5 112.192 243.5ZM112.192 239.95C113.792 239.95 115.008 239.6 115.842 238.9C116.708 238.2 117.308 237.317 117.642 236.25C117.975 235.15 118.142 234.034 118.142 232.9C118.142 231.767 117.975 230.667 117.642 229.6C117.308 228.5 116.708 227.6 115.842 226.9C115.008 226.167 113.792 225.8 112.192 225.8C110.558 225.8 109.308 226.167 108.442 226.9C107.575 227.6 106.975 228.5 106.642 229.6C106.308 230.667 106.142 231.767 106.142 232.9C106.142 234.034 106.308 235.15 106.642 236.25C106.975 237.317 107.575 238.2 108.442 238.9C109.308 239.6 110.558 239.95 112.192 239.95ZM126.334 243V222.55H130.184L130.534 228.1C130.734 227.2 131.117 226.334 131.684 225.5C132.284 224.634 133.101 223.934 134.134 223.4C135.201 222.834 136.551 222.55 138.184 222.55H139.034V227.15H138.134C136.101 227.15 134.534 227.417 133.434 227.95C132.334 228.45 131.567 229.2 131.134 230.2C130.701 231.167 130.484 232.367 130.484 233.8V243H126.334ZM148.876 243C147.443 243 146.393 242.634 145.726 241.9C145.093 241.167 144.776 240.05 144.776 238.55V225.55H141.626V222.55C142.66 222.55 143.426 222.467 143.926 222.3C144.46 222.1 144.81 221.634 144.976 220.9C145.176 220.134 145.276 218.934 145.276 217.3H148.726V222.55H153.426V225.55H148.726V239.7H153.476V243H148.876ZM165.877 243.5C164.344 243.5 162.894 243.167 161.527 242.5C160.194 241.834 159.11 240.95 158.277 239.85C157.477 238.717 157.077 237.5 157.077 236.2H160.977C160.977 236.267 160.994 236.517 161.027 236.95C161.06 237.384 161.21 237.867 161.477 238.4C161.744 238.934 162.21 239.4 162.877 239.8C163.577 240.2 164.56 240.4 165.827 240.4C167.227 240.4 168.36 240.15 169.227 239.65C170.094 239.15 170.527 238.45 170.527 237.55C170.527 236.717 170.21 236.067 169.577 235.6C168.944 235.134 168.127 234.767 167.127 234.5C166.127 234.2 165.06 233.917 163.927 233.65C162.827 233.384 161.777 233.034 160.777 232.6C159.81 232.134 159.01 231.517 158.377 230.75C157.777 229.95 157.494 228.884 157.527 227.55C157.527 225.75 158.277 224.367 159.777 223.4C161.31 222.4 163.244 221.9 165.577 221.9C167.077 221.9 168.51 222.15 169.877 222.65C171.244 223.117 172.36 223.884 173.227 224.95C174.127 226.017 174.56 227.45 174.527 229.25H170.677C170.71 228.117 170.444 227.267 169.877 226.7C169.344 226.1 168.677 225.7 167.877 225.5C167.077 225.267 166.327 225.15 165.627 225.15C164.294 225.15 163.244 225.4 162.477 225.9C161.71 226.367 161.327 227 161.327 227.8C161.327 228.667 161.644 229.334 162.277 229.8C162.91 230.234 163.727 230.6 164.727 230.9C165.727 231.167 166.777 231.434 167.877 231.7C169.01 231.967 170.077 232.317 171.077 232.75C172.077 233.184 172.894 233.8 173.527 234.6C174.194 235.4 174.527 236.467 174.527 237.8C174.527 239.767 173.71 241.217 172.077 242.15C170.444 243.05 168.377 243.5 165.877 243.5Z" fill="#2C1929"/>
<path d="M302.758 109.5L351.984 60.2742M351.984 60.2742L307.437 60.2742M351.984 60.2742L351.984 104.822" stroke="black" stroke-width="2" stroke-linecap="round"/>
<path d="M80 109H43.998C43.4676 109 42.9589 108.789 42.5838 108.414C42.2088 108.039 41.998 107.53 41.998 107V63C41.998 62.4696 42.2088 61.9609 42.5838 61.5858C42.9589 61.2107 43.4676 61 43.998 61H68L82 75V107C82 107.263 81.9483 107.523 81.8478 107.765C81.7473 108.008 81.5999 108.229 81.4142 108.414C81.2285 108.6 81.008 108.747 80.7654 108.848C80.5227 108.948 80.2626 109 80 109Z" stroke="black" stroke-width="2" stroke-linecap="round" stroke-linejoin="round"/>
<path d="M68 61V75H82.002" stroke="black" stroke-width="2" stroke-linecap="round" stroke-linejoin="round"/>
<path d="M54 87H70" stroke="black" stroke-width="2" stroke-linecap="round" stroke-linejoin="round"/>
<path d="M54 95H70" stroke="black" stroke-width="2" stroke-linecap="round" stroke-linejoin="round"/>
</svg>
