<svg width="400" height="286" viewBox="0 0 400 286" fill="none" xmlns="http://www.w3.org/2000/svg">
<path d="M348 6L348 227C348 229.761 345.761 232 343 232L5.99999 232C3.23858 232 0.99999 229.761 0.99999 227L1 5.99998C1 3.23856 3.23859 0.999985 6 0.999985L343 1C345.761 1 348 3.23858 348 6Z" fill="#F8F6EF" stroke="#2C1929" stroke-width="2"/>
<path d="M373 15L373 253C373 255.761 370.761 258 368 258L5.99999 258C3.23858 258 0.999989 255.761 0.999989 253L1 15C1 12.2386 3.23859 9.99998 6 9.99998L368 10C370.761 10 373 12.2386 373 15Z" fill="#F8F6EF" stroke="#2C1929" stroke-width="2"/>
<path d="M399 25L399 280C399 282.761 396.761 285 394 285L5.99999 285C3.23857 285 0.999988 282.761 0.999989 280L1 25C1 22.2386 3.23859 20 6 20L394 20C396.761 20 399 22.2386 399 25Z" fill="#F9F4E6" stroke="#2C1929" stroke-width="2"/>
<path d="M40.9 205V176.85H51.55C52.65 176.85 53.8333 176.933 55.1 177.1C56.3667 177.233 57.55 177.55 58.65 178.05C59.75 178.517 60.65 179.25 61.35 180.25C62.05 181.25 62.4 182.6 62.4 184.3C62.4 185.367 62.1833 186.367 61.75 187.3C61.35 188.2 60.6 188.933 59.5 189.5C58.4 190.067 56.8333 190.383 54.8 190.45V190.65C57.1667 190.683 58.9833 191.017 60.25 191.65C61.55 192.283 62.45 193.117 62.95 194.15C63.45 195.15 63.7 196.267 63.7 197.5C63.7 199.267 63.3167 200.65 62.55 201.65C61.7833 202.65 60.8 203.4 59.6 203.9C58.4 204.367 57.1167 204.667 55.75 204.8C54.4167 204.933 53.15 205 51.95 205H40.9ZM45 188.85H51.05C52.4167 188.85 53.6333 188.783 54.7 188.65C55.8 188.483 56.6667 188.1 57.3 187.5C57.9333 186.9 58.25 185.967 58.25 184.7C58.25 183.333 57.9167 182.35 57.25 181.75C56.5833 181.117 55.7 180.717 54.6 180.55C53.5 180.383 52.3333 180.3 51.1 180.3H45V188.85ZM45 201.6H51.6C53.0333 201.6 54.3333 201.517 55.5 201.35C56.6667 201.15 57.6 200.733 58.3 200.1C59.0333 199.433 59.4 198.4 59.4 197C59.4 195.567 59.0167 194.5 58.25 193.8C57.5167 193.1 56.5167 192.65 55.25 192.45C54.0167 192.217 52.6667 192.1 51.2 192.1H45V201.6ZM74.6914 205.5C72.9581 205.5 71.5747 205.183 70.5414 204.55C69.5414 203.883 68.7914 203.017 68.2914 201.95C67.8247 200.883 67.5081 199.75 67.3414 198.55C67.2081 197.35 67.1414 196.183 67.1414 195.05V184.55H71.2414V195.05C71.2414 196.25 71.3581 197.367 71.5914 198.4C71.8247 199.433 72.2914 200.267 72.9914 200.9C73.7247 201.5 74.8247 201.8 76.2914 201.8C77.6914 201.8 78.7747 201.483 79.5414 200.85C80.3081 200.217 80.8414 199.4 81.1414 198.4C81.4747 197.4 81.6581 196.35 81.6914 195.25L81.7414 184.55H85.9914V205H82.4414L81.7414 200.75H81.6414C81.5081 201.183 81.1914 201.783 80.6914 202.55C80.1914 203.283 79.4581 203.967 78.4914 204.6C77.5247 205.2 76.2581 205.5 74.6914 205.5ZM95.3477 213.75V209.85H104.948V200.9H104.848C104.781 201.033 104.614 201.35 104.348 201.85C104.081 202.317 103.664 202.833 103.098 203.4C102.564 203.967 101.848 204.467 100.948 204.9C100.048 205.3 98.9643 205.5 97.6977 205.5C94.6977 205.5 92.4977 204.533 91.0977 202.6C89.6977 200.633 88.9977 198.117 88.9977 195.05C88.9977 191.917 89.7143 189.383 91.1477 187.45C92.581 185.517 94.781 184.55 97.7477 184.55C99.081 184.55 100.181 184.767 101.048 185.2C101.948 185.633 102.664 186.15 103.198 186.75C103.731 187.35 104.114 187.9 104.348 188.4C104.614 188.9 104.764 189.217 104.798 189.35H104.898L104.948 184.55H109.198V207.6C109.198 209.8 108.781 211.367 107.948 212.3C107.114 213.267 105.731 213.75 103.798 213.75H95.3477ZM98.8477 201.9C100.781 201.9 102.264 201.283 103.298 200.05C104.331 198.783 104.848 197.117 104.848 195.05C104.848 193.05 104.348 191.433 103.348 190.2C102.381 188.933 100.948 188.3 99.0477 188.3C97.581 188.3 96.3977 188.633 95.4977 189.3C94.631 189.933 93.9977 190.767 93.5977 191.8C93.231 192.833 93.0477 193.917 93.0477 195.05C93.0477 196.217 93.2143 197.333 93.5477 198.4C93.9143 199.433 94.5143 200.283 95.3477 200.95C96.2143 201.583 97.381 201.9 98.8477 201.9ZM51.8 243.5C50.5333 243.5 49.45 243.3 48.55 242.9C47.65 242.467 46.9167 241.967 46.35 241.4C45.7833 240.833 45.3667 240.317 45.1 239.85C44.8333 239.35 44.6667 239.033 44.6 238.9H44.5L43.85 243H40.25V214.85H44.5L44.55 227.35H44.65C44.6833 227.217 44.8167 226.9 45.05 226.4C45.3167 225.9 45.7167 225.35 46.25 224.75C46.7833 224.15 47.5 223.633 48.4 223.2C49.3 222.767 50.4333 222.55 51.8 222.55C54.7667 222.55 56.95 223.533 58.35 225.5C59.7833 227.467 60.5 230 60.5 233.1C60.5 236.167 59.7833 238.667 58.35 240.6C56.95 242.533 54.7667 243.5 51.8 243.5ZM50.6 239.9C52.0667 239.9 53.2167 239.583 54.05 238.95C54.9167 238.283 55.5167 237.433 55.85 236.4C56.2167 235.333 56.4 234.217 56.4 233.05C56.4 231.917 56.2 230.833 55.8 229.8C55.4333 228.767 54.8 227.933 53.9 227.3C53.0333 226.633 51.8667 226.3 50.4 226.3C48.4667 226.3 47.0167 226.933 46.05 228.2C45.0833 229.433 44.6 231.05 44.6 233.05C44.6 235.117 45.1 236.783 46.1 238.05C47.1333 239.283 48.6333 239.9 50.6 239.9ZM73.6176 243.5C70.2176 243.5 67.6842 242.517 66.0176 240.55C64.3509 238.583 63.5176 236.083 63.5176 233.05C63.4842 229.983 64.3176 227.467 66.0176 225.5C67.7176 223.533 70.2509 222.533 73.6176 222.5C76.8842 222.5 79.3676 223.467 81.0676 225.4C82.7676 227.333 83.6176 229.883 83.6176 233.05C83.6176 235.017 83.2509 236.8 82.5176 238.4C81.8176 239.967 80.7176 241.217 79.2176 242.15C77.7509 243.05 75.8842 243.5 73.6176 243.5ZM73.6176 239.95C75.2176 239.95 76.4342 239.6 77.2676 238.9C78.1342 238.2 78.7342 237.317 79.0676 236.25C79.4009 235.15 79.5676 234.033 79.5676 232.9C79.5676 231.767 79.4009 230.667 79.0676 229.6C78.7342 228.5 78.1342 227.6 77.2676 226.9C76.4342 226.167 75.2176 225.8 73.6176 225.8C71.9842 225.8 70.7342 226.167 69.8676 226.9C69.0009 227.6 68.4009 228.5 68.0676 229.6C67.7342 230.667 67.5676 231.767 67.5676 232.9C67.5676 234.033 67.7342 235.15 68.0676 236.25C68.4009 237.317 69.0009 238.2 69.8676 238.9C70.7342 239.6 71.9842 239.95 73.6176 239.95ZM94.7598 243.5C93.0264 243.5 91.6431 243.183 90.6098 242.55C89.6098 241.883 88.8598 241.017 88.3598 239.95C87.8931 238.883 87.5764 237.75 87.4098 236.55C87.2764 235.35 87.2098 234.183 87.2098 233.05V222.55H91.3098V233.05C91.3098 234.25 91.4264 235.367 91.6598 236.4C91.8931 237.433 92.3598 238.267 93.0598 238.9C93.7931 239.5 94.8931 239.8 96.3598 239.8C97.7598 239.8 98.8431 239.483 99.6098 238.85C100.376 238.217 100.91 237.4 101.21 236.4C101.543 235.4 101.726 234.35 101.76 233.25L101.81 222.55H106.06V243H102.51L101.81 238.75H101.71C101.576 239.183 101.26 239.783 100.76 240.55C100.26 241.283 99.5264 241.967 98.5598 242.6C97.5931 243.2 96.3264 243.5 94.7598 243.5ZM110.066 243V222.6H113.616L114.316 227.3H114.416C114.449 227.167 114.583 226.85 114.816 226.35C115.049 225.85 115.433 225.317 115.966 224.75C116.499 224.15 117.216 223.633 118.116 223.2C119.016 222.767 120.149 222.55 121.516 222.55C123.316 222.55 124.716 222.9 125.716 223.6C126.716 224.267 127.449 225.15 127.916 226.25C128.383 227.317 128.666 228.45 128.766 229.65C128.899 230.85 128.966 231.967 128.966 233V243H124.916V232.95C124.916 231.683 124.783 230.55 124.516 229.55C124.249 228.517 123.749 227.717 123.016 227.15C122.316 226.55 121.283 226.25 119.916 226.25C118.516 226.25 117.399 226.583 116.566 227.25C115.733 227.917 115.149 228.783 114.816 229.85C114.483 230.917 114.316 232.05 114.316 233.25V243H110.066ZM138.769 243C137.335 243 136.285 242.633 135.619 241.9C134.985 241.167 134.669 240.05 134.669 238.55V225.55H131.519V222.55C132.552 222.55 133.319 222.467 133.819 222.3C134.352 222.1 134.702 221.633 134.869 220.9C135.069 220.133 135.169 218.933 135.169 217.3H138.619V222.55H143.319V225.55H138.619V239.7H143.369V243H138.769ZM145.42 252.3V249.05H148.37C149.07 249.05 149.653 248.883 150.12 248.55C150.586 248.25 151.153 247.417 151.82 246.05L153.57 242.2L145.57 222.55H149.87L155.62 237.9L161.77 222.55H166.12L155.62 246.5C154.886 248.2 154.22 249.467 153.62 250.3C153.02 251.133 152.353 251.667 151.62 251.9C150.886 252.167 149.97 252.3 148.87 252.3H145.42Z" fill="#2C1929"/>
<path d="M302.758 109.5L351.984 60.2739M351.984 60.2739L307.437 60.2739M351.984 60.2739L351.984 104.822" stroke="black" stroke-width="2" stroke-linecap="round"/>
<path d="M63 85L87 61" stroke="black" stroke-width="2" stroke-linecap="round" stroke-linejoin="round"/>
<path d="M79.9706 68.0295C75.7193 63.7865 70.0303 61.2938 64.0291 61.0444C58.0279 60.795 52.1516 62.8071 47.5629 66.6827C42.9742 70.5583 40.0072 76.0151 39.249 81.9734C38.4908 87.9318 39.9965 93.9577 43.4684 98.859C46.9402 103.76 52.1253 107.18 57.9977 108.442C63.8701 109.703 70.0021 108.715 75.1806 105.672C80.3591 102.629 84.2069 97.7528 85.9626 92.0088C87.7184 86.2647 87.2543 80.0709 84.6622 74.6527" stroke="black" stroke-width="2" stroke-linecap="round" stroke-linejoin="round"/>
<path d="M71.4853 76.5147C69.5014 74.5309 66.8851 73.3049 64.0911 73.0499C61.2971 72.7949 58.5021 73.527 56.1918 75.1189C53.8815 76.7108 52.2021 79.0619 51.4454 81.7636C50.6887 84.4652 50.9026 87.3466 52.0499 89.9069C53.1972 92.4672 55.2053 94.5446 57.7253 95.778C60.2452 97.0114 63.1177 97.3228 65.8434 96.658C68.5692 95.9933 70.9758 94.3945 72.6451 92.1396C74.3144 89.8846 75.1408 87.116 74.9806 84.3149" stroke="black" stroke-width="2" stroke-linecap="round" stroke-linejoin="round"/>
</svg>
