<svg width="121" height="17" viewBox="0 0 121 17" fill="none" xmlns="http://www.w3.org/2000/svg">
<path fill-rule="evenodd" clip-rule="evenodd" d="M0 0H16.8776V10.1266H0V0ZM3.37552 6.75103H13.5021V3.37552H3.37552V6.75103Z" fill="white"/>
<path d="M16.8776 13.5021H0V16.8776H16.8776V13.5021Z" fill="white"/>
<path d="M23.6287 8.45876C23.6287 7.4469 23.835 6.54821 24.2478 5.76269C24.6738 4.97716 25.2596 4.37138 26.0052 3.94533C26.7641 3.50597 27.6228 3.28629 28.5815 3.28629C29.5267 3.28629 30.3589 3.49266 31.0778 3.90539C31.7968 4.31812 32.356 4.90394 32.7554 5.66283C33.1548 6.42173 33.3545 7.30045 33.3545 8.299V9.19769H25.8854C25.9253 9.95658 26.2049 10.5823 26.7242 11.075C27.2567 11.5676 27.9158 11.8139 28.7013 11.8139C29.3803 11.8139 29.9195 11.6608 30.3189 11.3545C30.7317 11.0483 31.0578 10.6423 31.2975 10.1363L33.1149 11.1149C32.7154 11.8339 32.1696 12.4463 31.4772 12.9522C30.7982 13.4582 29.8596 13.7111 28.6613 13.7111C27.6761 13.7111 26.7974 13.4914 26.0252 13.0521C25.2663 12.5994 24.6738 11.9803 24.2478 11.1948C23.835 10.3959 23.6287 9.48394 23.6287 8.45876ZM31.1178 7.50016C31.0512 6.79452 30.7916 6.23533 30.3389 5.8226C29.8862 5.39655 29.2937 5.18353 28.5615 5.18353C27.8159 5.18353 27.2101 5.39655 26.7441 5.8226C26.2781 6.23533 25.9985 6.79452 25.9053 7.50016H31.1178Z" fill="white"/>
<path d="M42.5596 12.0336H42.3598C41.6276 13.1519 40.5025 13.7111 38.9848 13.7111C38.1726 13.7111 37.4204 13.4981 36.728 13.072C36.049 12.646 35.5032 12.0402 35.0904 11.2547C34.6777 10.4559 34.4713 9.53719 34.4713 8.49871C34.4713 7.46022 34.6777 6.54821 35.0904 5.76269C35.5032 4.97716 36.049 4.37138 36.728 3.94533C37.4204 3.51929 38.1726 3.30626 38.9848 3.30626C40.5025 3.30626 41.6409 3.87876 42.3998 5.02376H42.5995V3.58586H44.7564V16.8776H42.5596V12.0336ZM39.6238 11.8139C40.5025 11.8139 41.2148 11.521 41.7607 10.9352C42.3199 10.336 42.5995 9.52388 42.5995 8.49871C42.5995 7.47353 42.3199 6.66804 41.7607 6.08222C41.2148 5.48309 40.5025 5.18353 39.6238 5.18353C38.7451 5.18353 38.0328 5.48309 37.4869 6.08222C36.9411 6.66804 36.6681 7.47353 36.6681 8.49871C36.6681 9.52388 36.9411 10.336 37.4869 10.9352C38.0328 11.521 38.7451 11.8139 39.6238 11.8139Z" fill="white"/>
<path d="M53.7457 11.8938H53.546C52.9869 13.0254 51.9217 13.5913 50.3507 13.5913C49.6051 13.5913 48.9394 13.4249 48.3536 13.092C47.7678 12.7459 47.3085 12.2666 46.9756 11.6541C46.6561 11.0284 46.4963 10.3094 46.4963 9.49725V3.58586H48.6931V9.37743C48.6931 10.1763 48.8928 10.782 49.2922 11.1948C49.6916 11.5942 50.2641 11.7939 51.0097 11.7939C51.8352 11.7939 52.4876 11.521 52.9669 10.9751C53.4595 10.4159 53.7058 9.63705 53.7058 8.6385V3.58586H55.8826V13.4315H53.7457V11.8938Z" fill="white"/>
<path d="M60.3312 13.4315H58.1543V3.58586H60.3312V13.4315Z" fill="white"/>
<path d="M64.7926 13.4315H62.6158V0H64.7926V13.4315Z" fill="white"/>
<path d="M69.2541 13.4315H67.0773V3.58586H69.2541V13.4315Z" fill="white"/>
<path d="M73.7156 4.96385H73.9153C74.6476 3.85879 75.7726 3.30626 77.2904 3.30626C78.1025 3.30626 78.8481 3.51929 79.5271 3.94533C80.2194 4.37138 80.772 4.97716 81.1847 5.76269C81.5974 6.54821 81.8038 7.46022 81.8038 8.49871C81.8038 9.53719 81.5974 10.4559 81.1847 11.2547C80.772 12.0402 80.2194 12.646 79.5271 13.072C78.8481 13.4981 78.1025 13.7111 77.2904 13.7111C75.7726 13.7111 74.6342 13.132 73.8754 11.9736H73.6756V13.4315H71.5388V0H73.7156V4.96385ZM76.6513 5.18353C75.7859 5.18353 75.0736 5.48309 74.5144 6.08222C73.9685 6.68135 73.6956 7.48685 73.6956 8.49871C73.6956 9.51057 73.9685 10.3161 74.5144 10.9152C75.0736 11.5143 75.7859 11.8139 76.6513 11.8139C77.53 11.8139 78.2423 11.521 78.7882 10.9352C79.3341 10.336 79.607 9.52388 79.607 8.49871C79.607 7.47353 79.3341 6.66804 78.7882 6.08222C78.2423 5.48309 77.53 5.18353 76.6513 5.18353Z" fill="white"/>
<path d="M85.8064 4.94388C86.0061 4.45126 86.3057 4.09844 86.7051 3.88542C87.1045 3.65908 87.6304 3.54591 88.2828 3.54591H89.4212V5.40321H87.9034C87.211 5.40321 86.6585 5.58961 86.2458 5.9624C85.8464 6.33519 85.6467 6.88106 85.6467 7.60001V13.4315H83.4698V3.58586H85.6067V4.94388H85.8064Z" fill="white"/>
<path d="M92.858 13.4315H90.6812V3.58586H92.858V13.4315Z" fill="white"/>
<path d="M102.392 11.8938H102.192C101.633 13.0254 100.568 13.5913 98.9971 13.5913C98.2515 13.5913 97.5858 13.4249 97 13.092C96.4142 12.7459 95.9548 12.2666 95.622 11.6541C95.3024 11.0284 95.1427 10.3094 95.1427 9.49725V3.58586H97.3395V9.37743C97.3395 10.1763 97.5392 10.782 97.9386 11.1948C98.338 11.5942 98.9105 11.7939 99.6561 11.7939C100.482 11.7939 101.134 11.521 101.613 10.9751C102.106 10.4159 102.352 9.63705 102.352 8.6385V3.58586H104.529V13.4315H102.392V11.8938Z" fill="white"/>
<path d="M108.938 4.82405H109.137C109.63 3.87876 110.522 3.40612 111.813 3.40612C113.158 3.40612 114.083 3.95199 114.589 5.04373H114.789C115.069 4.52449 115.435 4.12507 115.887 3.84548C116.34 3.55257 116.939 3.40612 117.685 3.40612C118.657 3.40612 119.449 3.71234 120.061 4.32478C120.687 4.92391 121 5.776 121 6.88106V13.4315H118.803V7.00089C118.803 6.42839 118.643 5.98903 118.324 5.6828C118.004 5.36327 117.565 5.2035 117.006 5.2035C116.38 5.2035 115.887 5.40321 115.528 5.80263C115.169 6.20205 114.989 6.77455 114.989 7.52013V13.4315H112.792V7.00089C112.792 6.42839 112.632 5.98903 112.313 5.6828C112.006 5.36327 111.567 5.2035 110.995 5.2035C110.369 5.2035 109.876 5.40321 109.517 5.80263C109.157 6.20205 108.978 6.77455 108.978 7.52013V13.4315H106.801V3.58586H108.938V4.82405Z" fill="white"/>
<path d="M58.1802 0.0369789H60.3322V1.9629H58.1802V0.0369789Z" fill="white"/>
<path d="M67.0514 0.0369789H69.2034V1.9629H67.0514V0.0369789Z" fill="white"/>
<path d="M90.7078 0.0369789H92.8598V1.9629H90.7078V0.0369789Z" fill="white"/>
</svg>
