<svg width="260" height="240" viewBox="0 0 260 240" fill="none" xmlns="http://www.w3.org/2000/svg">
<circle cx="129.483" cy="121.375" r="55" fill="url(#paint0_linear)"/>
<path fill-rule="evenodd" clip-rule="evenodd" d="M151.446 71.3875C163.648 66.5981 175.132 63.1344 185.343 61.1018C196.05 58.9704 205.266 58.4309 212.405 59.5279C219.563 60.6278 224.367 63.3216 226.723 67.4034C229.08 71.4852 229.011 76.992 226.385 83.7411C223.765 90.4723 218.69 98.1838 211.491 106.39C197.104 122.791 174.479 140.892 147.015 156.748C119.55 172.605 92.5623 183.148 71.1657 187.407C60.4591 189.538 51.2431 190.078 44.104 188.981C36.9458 187.881 32.1424 185.187 29.7858 181.105C27.4291 177.023 27.4979 171.517 30.1245 164.768C32.7441 158.036 37.8193 150.325 45.0183 142.118C52.6589 133.409 62.6226 124.219 74.4008 115.141C74.5241 114.357 74.6641 113.578 74.8202 112.805C39.7815 139.464 20.0182 167.387 28.4001 181.905C39.203 200.616 92.6668 189.974 147.815 158.134C202.963 126.294 238.912 85.3146 228.109 66.6034C219.997 52.5538 187.833 55.0541 148.964 70.651C149.826 70.8737 150.653 71.1187 151.446 71.3875Z" fill="#2C1929"/>
<path fill-rule="evenodd" clip-rule="evenodd" d="M77.473 141.238C65.4583 135.997 54.8884 130.325 46.2308 124.542C37.153 118.478 30.2549 112.343 25.9824 106.519C21.6985 100.68 20.2068 95.3788 21.4267 90.8261C22.6466 86.2734 26.5891 82.4282 33.2187 79.5131C39.8307 76.6058 48.8722 74.7416 59.7656 74.0292C81.5356 72.6056 110.333 75.8041 140.965 84.0121C171.598 92.2201 198.136 103.849 216.278 115.967C225.356 122.03 232.254 128.165 236.526 133.989C240.81 139.829 242.302 145.13 241.082 149.683C239.862 154.235 235.92 158.08 229.29 160.995C222.678 163.903 213.636 165.767 202.743 166.479C191.182 167.235 177.638 166.688 162.891 164.779C162.249 165.246 161.599 165.698 160.942 166.134C204.569 172.06 238.289 166.289 242.627 150.097C248.219 129.227 202.889 98.9481 141.38 82.4666C79.8698 65.9851 25.4732 69.5424 19.8812 90.412C15.6824 106.082 40.1937 127.058 78.7071 143.514C78.255 142.747 77.8435 141.989 77.473 141.238Z" fill="#2C1929"/>
<path fill-rule="evenodd" clip-rule="evenodd" d="M149.238 173.036C143.997 185.05 138.325 195.62 132.542 204.278C126.478 213.356 120.343 220.254 114.519 224.526C108.68 228.81 103.379 230.302 98.8261 229.082C94.2734 227.862 90.4282 223.919 87.5131 217.29C84.6058 210.678 82.7416 201.636 82.0292 190.743C80.6056 168.973 83.8041 140.176 92.0121 109.543C100.22 78.9105 111.849 52.3722 123.967 34.2307C130.03 25.1529 136.165 18.2548 141.989 13.9823C147.829 9.69844 153.13 8.20674 157.683 9.42663C162.235 10.6465 166.08 14.589 168.995 21.2186C171.903 27.8306 173.767 36.8721 174.479 47.7656C175.235 59.327 174.688 72.8703 172.779 87.6179C173.246 88.2598 173.698 88.9095 174.134 89.5666C180.06 45.9398 174.289 12.2199 158.097 7.88114C137.227 2.28916 106.948 47.6194 90.4666 109.129C73.9851 170.639 77.5424 225.035 98.412 230.627C114.082 234.826 135.058 210.315 151.514 171.801C150.747 172.254 149.989 172.665 149.238 173.036Z" fill="#2C1929"/>
<path fill-rule="evenodd" clip-rule="evenodd" d="M179.121 144.446C183.911 156.648 187.374 168.132 189.407 178.343C191.538 189.05 192.078 198.266 190.981 205.405C189.881 212.563 187.187 217.366 183.105 219.723C179.024 222.08 173.517 222.011 166.768 219.384C160.036 216.765 152.325 211.69 144.118 204.49C127.718 190.103 109.617 167.479 93.7605 140.015C77.9039 112.55 67.3612 85.5621 63.1018 64.1654C60.9705 53.4588 60.431 44.2429 61.528 37.1037C62.6279 29.9455 65.3217 25.1422 69.4035 22.7855C73.4853 20.4289 78.992 20.4977 85.7411 23.1242C92.4723 25.7438 100.184 30.819 108.39 38.0181C117.1 45.6586 126.29 55.6224 135.368 67.4005C136.152 67.5239 136.931 67.6638 137.704 67.82C111.045 32.7813 83.1214 13.018 68.6035 21.3999C49.8923 32.2028 60.5352 85.6666 92.3749 140.815C124.215 195.963 165.194 231.912 183.905 221.109C197.955 212.997 195.455 180.833 179.858 141.964C179.635 142.826 179.39 143.653 179.121 144.446Z" fill="#2C1929"/>
<defs>
<linearGradient id="paint0_linear" x1="48.7019" y1="98.0615" x2="190.671" y2="267.874" gradientUnits="userSpaceOnUse">
<stop stop-color="#FFF6C7"/>
<stop offset="1" stop-color="#FC9A1E"/>
</linearGradient>
</defs>
</svg>
