<svg width="260" height="240" viewBox="0 0 260 240" fill="none" xmlns="http://www.w3.org/2000/svg">
<circle cx="65.5" cy="119.781" r="44.5" fill="url(#paint0_linear)"/>
<circle cx="99.25" cy="175.773" r="44.5" transform="rotate(120 99.25 175.773)" fill="url(#paint1_linear)"/>
<circle cx="163.75" cy="64.7881" r="44.5" transform="rotate(120 163.75 64.7881)" fill="url(#paint2_linear)"/>
<circle cx="162.75" cy="174.773" r="44.5" transform="rotate(60 162.75 174.773)" fill="url(#paint3_linear)"/>
<circle cx="99.25" cy="63.7881" r="44.5" transform="rotate(60 99.25 63.7881)" fill="url(#paint4_linear)"/>
<circle cx="194.5" cy="119.781" r="44.5" fill="url(#paint5_linear)"/>
<circle cx="130.421" cy="122.131" r="52.2016" transform="rotate(36.5734 130.421 122.131)" fill="#F9F5E9" stroke="#2C1929" stroke-width="1.6"/>
<circle cx="129.66" cy="116.998" r="52.6094" transform="rotate(36.5734 129.66 116.998)" fill="#F9F5E9" stroke="#2C1929" stroke-width="1.6"/>
<defs>
<linearGradient id="paint0_linear" x1="0.140622" y1="100.918" x2="115.006" y2="238.312" gradientUnits="userSpaceOnUse">
<stop stop-color="#FFF6C7"/>
<stop offset="1" stop-color="#FC9A1E"/>
</linearGradient>
<linearGradient id="paint1_linear" x1="33.8906" y1="156.911" x2="148.756" y2="294.305" gradientUnits="userSpaceOnUse">
<stop stop-color="#FFF6C7"/>
<stop offset="1" stop-color="#FC9A1E"/>
</linearGradient>
<linearGradient id="paint2_linear" x1="98.3906" y1="45.9256" x2="213.256" y2="183.319" gradientUnits="userSpaceOnUse">
<stop stop-color="#FFF6C7"/>
<stop offset="1" stop-color="#FC9A1E"/>
</linearGradient>
<linearGradient id="paint3_linear" x1="97.3906" y1="155.911" x2="212.256" y2="293.305" gradientUnits="userSpaceOnUse">
<stop stop-color="#FFF6C7"/>
<stop offset="1" stop-color="#FC9A1E"/>
</linearGradient>
<linearGradient id="paint4_linear" x1="33.8906" y1="44.9256" x2="148.756" y2="182.319" gradientUnits="userSpaceOnUse">
<stop stop-color="#FFF6C7"/>
<stop offset="1" stop-color="#FC9A1E"/>
</linearGradient>
<linearGradient id="paint5_linear" x1="129.141" y1="100.918" x2="244.006" y2="238.312" gradientUnits="userSpaceOnUse">
<stop stop-color="#FFF6C7"/>
<stop offset="1" stop-color="#FC9A1E"/>
</linearGradient>
</defs>
</svg>
