<svg width="260" height="240" viewBox="0 0 260 240" fill="none" xmlns="http://www.w3.org/2000/svg">
<path fill-rule="evenodd" clip-rule="evenodd" d="M34.9145 192.933C30.5295 189.332 26.7824 185.095 23.7643 180.413C29.8284 192.181 40.2178 201.752 53.6851 206.514C81.7297 216.428 112.502 201.731 122.416 173.686C127.177 160.219 126.263 146.123 120.921 134.009C122.666 139.3 123.606 144.878 123.651 150.551C124.395 157.967 123.557 165.661 120.908 173.153C111.288 200.364 81.4299 214.625 54.2184 205.005C46.7259 202.356 40.2152 198.173 34.9145 192.933Z" fill="#2C1929"/>
<path fill-rule="evenodd" clip-rule="evenodd" d="M51.8078 200.637C79.235 210.334 109.33 195.96 119.026 168.533C128.722 141.106 114.349 111.011 86.9214 101.315C59.4942 91.6183 29.3997 105.992 19.7033 133.419C10.0069 160.846 24.3806 190.941 51.8078 200.637ZM51.2745 202.146C79.5348 212.137 110.544 197.326 120.534 169.066C130.525 140.806 115.715 109.797 87.4547 99.8061C59.1944 89.8152 28.1857 104.626 18.1948 132.886C8.20388 161.146 23.0142 192.155 51.2745 202.146Z" fill="#2C1929"/>
<path fill-rule="evenodd" clip-rule="evenodd" d="M137.537 115.404C135.216 110.228 133.745 104.767 133.122 99.2314C133.327 112.53 138.406 125.781 148.403 136.075C169.218 157.511 203.469 158.015 224.905 137.2C235.198 127.205 240.664 114.113 241.262 100.829C240.475 106.344 238.844 111.759 236.371 116.864C233.733 123.897 229.537 130.472 223.79 136.052C202.988 156.251 169.75 155.763 149.551 134.961C143.969 129.212 139.967 122.514 137.537 115.404Z" fill="#2C1929"/>
<path fill-rule="evenodd" clip-rule="evenodd" d="M149.331 129.955C169.69 150.921 203.192 151.414 224.159 131.054C245.125 110.695 245.618 77.1931 225.258 56.2263C204.899 35.2595 171.397 34.7671 150.43 55.1267C129.463 75.4862 128.971 108.988 149.331 129.955ZM148.183 131.069C169.158 152.67 203.672 153.177 225.273 132.202C246.874 111.227 247.381 76.7124 226.406 55.1116C205.431 33.5109 170.916 33.0037 149.316 53.9788C127.715 74.9539 127.208 109.468 148.183 131.069Z" fill="#2C1929"/>
<path fill-rule="evenodd" clip-rule="evenodd" d="M147.445 55.8845C136.187 67.9234 131.39 83.8671 133.122 99.2339C133.328 112.532 138.407 125.781 148.403 136.075C160.929 148.975 178.32 154.294 194.856 151.949C184.57 180.86 156.964 201.558 124.523 201.558C117.438 201.558 110.583 200.571 104.089 198.726C112.251 192.578 118.756 184.042 122.417 173.686C127.178 160.219 126.263 146.123 120.921 134.01C115.839 118.603 103.933 105.632 87.455 99.8061C76.7678 96.0279 65.6876 95.7965 55.4997 98.4981C66.6802 71.3832 93.3731 52.2983 124.523 52.2983C132.52 52.2983 140.223 53.556 147.445 55.8845Z" fill="url(#paint0_linear)"/>
<defs>
<linearGradient id="paint0_linear" x1="14.9105" y1="95.2944" x2="207.549" y2="325.715" gradientUnits="userSpaceOnUse">
<stop stop-color="#FFF6C7"/>
<stop offset="1" stop-color="#FC9A1E"/>
</linearGradient>
</defs>
</svg>
