<svg xmlns="http://www.w3.org/2000/svg" xmlns:xlink="http://www.w3.org/1999/xlink" width="120" height="28.1" viewBox="0 0 120 28.1"><defs><style>.a{fill:url(#a);}.b{opacity:0.4;fill:url(#b);}.c{fill:url(#c);}.d{fill:#321729;}</style><linearGradient id="a" x1="8.12" y1="23.14" x2="21.32" y2="23.14" gradientUnits="userSpaceOnUse"><stop offset="0" stop-color="#fb7c19"/><stop offset="1" stop-color="#ffe229"/></linearGradient><linearGradient id="b" x1="8.12" y1="21.96" x2="21.32" y2="21.96" gradientUnits="userSpaceOnUse"><stop offset="0" stop-color="#860000"/><stop offset="1" stop-color="#ff6200"/></linearGradient><linearGradient id="c" x1="0" y1="9.86" x2="33.86" y2="9.86" xlink:href="#a"/></defs><title>logo-vanilla</title><path class="a" d="M19.24,19.9a4.33,4.33,0,0,0-1.62-.61h0l-9.49-1.1,2.06,3.22,3,4.67a4.29,4.29,0,0,0,2.15,1.73h0a2.91,2.91,0,0,0,.5.16h.05l.47.08.22,0,.31,0a4.44,4.44,0,0,0,2.33-8.2Z"/><path class="b" d="M20.8,25.74a4.42,4.42,0,0,0-1.56-5.84,4.33,4.33,0,0,0-1.62-.61h0l-9.49-1.1a39.88,39.88,0,0,1,6.22,1.54C18.67,21.23,20.83,23.48,20.8,25.74Z"/><path class="c" d="M29.41,0c-3.68,0-8.54,4.44-12.48,4.44S8.12,0,4.45,0A4.43,4.43,0,0,0,.9,7.1l3,4.56h0a4.39,4.39,0,0,0,3.12,2L18.32,15l.09,0h0a8.75,8.75,0,0,1,6.34,4.75L33,7.1A4.43,4.43,0,0,0,29.41,0Z"/><path class="d" d="M50.71,18.85,54.56,8.64h2.86a.85.85,0,0,1,.78,1.15L52.74,23.56H49.82a1.68,1.68,0,0,1-1.56-1.06L42.77,8.64H45.7a1.68,1.68,0,0,1,1.57,1.08Z"/><path class="d" d="M71.86,9.24a20.06,20.06,0,0,1,6.54-1c4.12,0,6.41,1.85,6.41,5.88v9.4H82.64A1.68,1.68,0,0,1,81,21.89V14.28c0-1.7-1.07-2.33-2.65-2.33a10.75,10.75,0,0,0-2.57.27V23.56H73.53a1.67,1.67,0,0,1-1.67-1.67Z"/><path class="d" d="M88.44,1.93a2.33,2.33,0,1,1-1.63,1.79A2.34,2.34,0,0,1,88.44,1.93ZM87.15,8.64h2.21A1.67,1.67,0,0,1,91,10.31V23.56h-2.2a1.68,1.68,0,0,1-1.68-1.67Z"/><path class="d" d="M93.38,2.67h2.2a1.68,1.68,0,0,1,1.68,1.68V18.19c0,1.55.32,2,1,2a1.49,1.49,0,0,0,.77-.14,6.19,6.19,0,0,0,.26,1.74,4.88,4.88,0,0,0,.9,1.63,6.28,6.28,0,0,1-2.38.44c-2.53,0-4.44-1.4-4.44-4.81Z"/><path class="d" d="M100.79,2.67H103a1.68,1.68,0,0,1,1.68,1.68V18.19c0,1.55.32,2,1,2a1.49,1.49,0,0,0,.77-.14,6.66,6.66,0,0,0,.26,1.74,4.88,4.88,0,0,0,.9,1.63,6.28,6.28,0,0,1-2.38.44c-2.53,0-4.44-1.4-4.44-4.81Z"/><path class="d" d="M120,23a19.43,19.43,0,0,1-6.15,1c-4.33,0-6.24-1.58-6.24-4.78,0-3.46,2.42-4.71,5.91-4.71h2.63V13.5c0-1.25-1-1.7-2.83-1.7a11.56,11.56,0,0,0-4.15.72l-.32-2a1.68,1.68,0,0,1,1.35-1.92,17.83,17.83,0,0,1,3.32-.34c3.73,0,6.48,1.46,6.48,5.67Zm-3.85-5.61h-2.69c-1.46,0-2,.54-2,1.64,0,1.5.93,1.65,2.21,1.65a10.61,10.61,0,0,0,2.45-.24Z"/><path class="d" d="M69.9,23a19.43,19.43,0,0,1-6.15,1c-4.32,0-6.23-1.58-6.23-4.78,0-3.46,2.41-4.71,5.91-4.71h2.62V13.5c0-1.25-1-1.7-2.83-1.7a11.61,11.61,0,0,0-4.15.72l1.11-3a1.66,1.66,0,0,1,1.31-1.07,13.85,13.85,0,0,1,1.94-.18c3.73,0,6.47,1.46,6.47,5.67Zm-3.85-5.61H63.37c-1.47,0-2,.54-2,1.64,0,1.5.92,1.65,2.21,1.65a10.52,10.52,0,0,0,2.44-.24Z"/></svg>