<svg width="2490" height="583" viewBox="0 0 2490 583" fill="none" xmlns="http://www.w3.org/2000/svg">
<path d="M399.23 413.872C388.991 407.434 377.558 403.129 365.615 401.216V401.216L168.698 378.394L211.443 445.2L273.693 542.09C284.204 558.641 299.887 571.258 318.305 577.983V577.983C321.656 579.4 325.129 580.511 328.68 581.303H329.718L339.47 582.963H344.035H350.468C370.4 582.823 389.75 576.223 405.612 564.154C421.474 552.084 432.994 535.197 438.442 516.025C443.891 496.854 442.973 476.433 435.828 457.827C428.683 439.221 415.696 423.434 398.815 412.835L399.23 413.872Z" fill="url(#paint0_linear)"/>
<path opacity="0.4" d="M431.6 535.036C442.603 514.506 445.38 490.559 439.368 468.057C433.357 445.554 419.006 426.181 399.23 413.872C388.991 407.434 377.558 403.129 365.615 401.216V401.216L168.698 378.394C212.507 385.566 255.668 396.25 297.763 410.345C387.403 441.466 432.223 488.147 431.6 535.036Z" fill="url(#paint1_linear)"/>
<path d="M610.257 0.999654C533.897 0.999654 433.052 93.1178 351.297 93.1178C269.542 93.1178 168.489 0.999654 92.3368 0.999654C75.2127 0.941482 58.4128 5.66714 43.8309 14.6439C29.2489 23.6207 17.4646 36.4917 9.80649 51.8061C2.14833 67.1204 -1.07926 84.2692 0.487559 101.319C2.05438 118.37 8.3533 134.643 18.6743 148.306L80.9243 242.914C88.0367 254.132 97.5169 263.658 108.7 270.826C119.884 277.994 132.5 282.63 145.664 284.408L380.139 312.21H382.007C410.142 317.132 436.719 328.622 459.577 345.746C482.436 362.869 500.932 385.144 513.562 410.759L684.749 148.306C695.115 134.587 701.424 118.236 702.959 101.111C704.495 83.9862 701.196 66.7739 693.436 51.4302C685.677 36.0865 673.769 23.2266 659.065 14.3119C644.361 5.39717 627.451 0.785054 610.257 0.999654V0.999654Z" fill="url(#paint2_linear)"/>
<path d="M1052.23 391.087L1132.12 179.257H1191.47C1194.29 179.308 1197.06 180.037 1199.55 181.383C1202.03 182.728 1204.16 184.652 1205.75 186.99C1207.33 189.329 1208.33 192.015 1208.66 194.821C1209 197.628 1208.65 200.473 1207.65 203.117L1094.36 488.807H1033.77C1026.79 488.802 1019.97 486.702 1014.2 482.782C1008.43 478.861 1003.97 473.299 1001.4 466.815L887.478 179.257H948.275C955.336 179.254 962.232 181.394 968.049 185.396C973.866 189.397 978.331 195.07 980.853 201.664L1052.23 391.087Z" fill="white"/>
<path d="M1491.09 191.705C1534.87 177.327 1580.73 170.316 1626.8 170.958C1712.29 170.958 1759.81 209.34 1759.81 292.952V487.977H1714.78C1705.86 487.768 1697.35 484.145 1691.02 477.853C1684.69 471.561 1681.01 463.08 1680.75 454.159V296.272C1680.75 261.001 1658.55 247.93 1625.76 247.93C1607.83 247.647 1589.92 249.528 1572.43 253.532V488.807H1525.75C1516.56 488.807 1507.74 485.156 1501.24 478.659C1494.75 472.161 1491.09 463.348 1491.09 454.159V191.705Z" fill="white"/>
<path d="M1835.13 40.0424C1845.25 37.0681 1856.07 37.4853 1865.93 41.2302C1875.79 44.9751 1884.16 51.8424 1889.75 60.7845C1895.35 69.7267 1897.86 80.2531 1896.92 90.7583C1895.97 101.263 1891.61 111.171 1884.51 118.97C1877.41 126.768 1867.95 132.03 1857.58 133.953C1847.2 135.876 1836.49 134.354 1827.06 129.619C1817.63 124.885 1810.02 117.197 1805.37 107.73C1800.72 98.2619 1799.29 87.5333 1801.31 77.1802C1803.02 68.4948 1807.08 60.4437 1813.04 53.898C1819 47.3522 1826.64 42.5609 1835.13 40.0424V40.0424ZM1808.36 179.257H1854.22C1863.3 179.42 1871.96 183.143 1878.32 189.623C1884.69 196.103 1888.25 204.823 1888.25 213.905V488.807H1842.6C1833.39 488.807 1824.56 485.164 1818.02 478.672C1811.49 472.18 1807.8 463.367 1807.74 454.159L1808.36 179.257Z" fill="white"/>
<path d="M1937.63 55.395H1983.28C1992.53 55.395 2001.4 59.0673 2007.93 65.604C2014.47 72.1406 2018.14 81.0063 2018.14 90.2505V377.394C2018.14 409.552 2024.78 418.888 2038.89 418.888C2044.38 419.361 2049.9 418.358 2054.87 415.984C2054.94 428.213 2056.76 440.369 2060.27 452.084C2064.26 464.451 2070.6 475.932 2078.94 485.902C2063.23 492.118 2046.46 495.219 2029.56 495.031C1977.06 495.031 1937.43 465.985 1937.43 395.236L1937.63 55.395Z" fill="white"/>
<path d="M2091.39 55.395H2137.25C2146.49 55.395 2155.36 59.0673 2161.9 65.604C2168.44 72.1406 2172.11 81.0063 2172.11 90.2505V377.394C2172.11 409.552 2178.75 418.888 2192.86 418.888C2198.35 419.361 2203.86 418.358 2208.84 415.984C2209.03 428.203 2210.84 440.342 2214.23 452.084C2218.23 464.451 2224.57 475.932 2232.91 485.902C2217.19 492.118 2200.42 495.219 2183.52 495.031C2131.02 495.031 2091.39 465.985 2091.39 395.236V55.395Z" fill="white"/>
<path d="M2490 477.189C2448.86 490.924 2405.76 497.929 2362.39 497.936C2272.54 497.936 2232.91 465.155 2232.91 398.764C2232.91 326.978 2283.12 301.044 2355.54 301.044H2410.11V280.089C2410.11 254.155 2389.36 244.819 2351.39 244.819C2322.01 244.483 2292.82 249.547 2265.28 259.757L2258.64 218.262C2257.18 209.28 2259.3 200.086 2264.53 192.642C2269.77 185.199 2277.7 180.098 2286.65 178.427C2309.34 173.928 2332.41 171.566 2355.54 171.373C2432.94 171.373 2490 201.664 2490 289.011V477.189ZM2410.11 360.796H2354.29C2324 360.796 2312.79 372 2312.79 394.822C2312.79 425.943 2332.09 429.055 2358.65 429.055C2375.73 429.373 2392.79 427.702 2409.49 424.076L2410.11 360.796Z" fill="white"/>
<path d="M1450.43 477.189C1409.28 490.924 1366.19 497.929 1322.81 497.936C1233.17 497.936 1193.54 465.155 1193.54 398.764C1193.54 326.978 1243.55 301.044 1316.17 301.044H1370.54V280.089C1370.54 254.155 1349.79 244.819 1311.82 244.819C1282.44 244.507 1253.26 249.57 1225.7 259.757L1248.74 197.515C1250.86 191.718 1254.5 186.599 1259.29 182.694C1264.07 178.788 1269.81 176.24 1275.92 175.315C1289.23 173.127 1302.68 171.879 1316.17 171.581C1393.57 171.581 1450.43 201.872 1450.43 289.218V477.189ZM1370.54 360.796H1314.93C1284.43 360.796 1273.43 372 1273.43 394.822C1273.43 425.943 1292.52 429.055 1319.29 429.055C1336.3 429.374 1353.29 427.703 1369.92 424.076L1370.54 360.796Z" fill="white"/>
<defs>
<linearGradient id="paint0_linear" x1="168.49" y1="481.093" x2="442.39" y2="481.093" gradientUnits="userSpaceOnUse">
<stop stop-color="#FB7C19"/>
<stop offset="1" stop-color="#FFE229"/>
</linearGradient>
<linearGradient id="paint1_linear" x1="168.49" y1="456.611" x2="442.39" y2="456.611" gradientUnits="userSpaceOnUse">
<stop stop-color="#860000"/>
<stop offset="1" stop-color="#FF6200"/>
</linearGradient>
<linearGradient id="paint2_linear" x1="0.101929" y1="4041.29" x2="23811.3" y2="4041.29" gradientUnits="userSpaceOnUse">
<stop stop-color="#FB7C19"/>
<stop offset="1" stop-color="#FFE229"/>
</linearGradient>
</defs>
</svg>
