<?xml version="1.0" standalone="no"?>
<!DOCTYPE svg PUBLIC "-//W3C//DTD SVG 20010904//EN"
 "http://www.w3.org/TR/2001/REC-SVG-20010904/DTD/svg10.dtd">
<svg version="1.0" xmlns="http://www.w3.org/2000/svg"
 width="260.000000pt" height="260.000000pt" viewBox="0 0 260.000000 260.000000"
 preserveAspectRatio="xMidYMid meet">
<metadata>
Created by potrace 1.11, written by Peter Selinger 2001-2013
</metadata>
<g transform="translate(0.000000,260.000000) scale(0.100000,-0.100000)"
fill="#000000" stroke="none">
<path d="M354 2219 c-114 -43 -185 -141 -190 -263 -4 -89 13 -132 106 -271 40
-60 94 -141 119 -180 92 -140 141 -172 296 -190 45 -5 72 -9 155 -20 14 -2 52
-6 85 -10 33 -3 71 -8 85 -10 14 -2 52 -7 84 -10 33 -3 71 -7 85 -10 27 -4 72
-10 175 -20 177 -19 340 -118 435 -265 l37 -57 76 116 c41 64 88 136 104 160
16 24 34 51 39 60 6 9 31 48 56 86 25 39 90 138 144 220 53 83 114 176 135
207 107 161 63 352 -102 443 -48 27 -61 30 -143 29 -110 -1 -138 -11 -410
-144 -255 -124 -314 -144 -425 -144 -113 0 -177 21 -420 141 -107 53 -224 107
-260 120 -88 34 -197 39 -266 12z"/>
<path d="M798 868 c282 -438 295 -454 388 -491 56 -22 165 -17 225 10 63 28
116 77 147 137 22 43 27 64 27 131 0 91 -21 148 -76 203 -64 65 -119 83 -319
106 -25 3 -108 12 -185 21 -77 9 -160 18 -185 21 -25 2 -62 6 -82 9 l-38 6 98
-153z"/>
</g>
</svg>
