<svg width="40" height="40" viewBox="0 0 40 40" fill="none" xmlns="http://www.w3.org/2000/svg">
<circle cx="20" cy="20" r="20" fill="#F2994A"/>
<path d="M20 13.75V19.375" stroke="white" stroke-width="2.5" stroke-linecap="round" stroke-linejoin="round"/>
<path d="M20 25C20.7767 25 21.4062 24.3704 21.4062 23.5938C21.4062 22.8171 20.7767 22.1875 20 22.1875C19.2233 22.1875 18.5938 22.8171 18.5938 23.5938C18.5938 24.3704 19.2233 25 20 25Z" fill="white"/>
<path d="M18.3772 7.18571L8.06752 24.9973C7.90255 25.2823 7.81555 25.6057 7.81528 25.935C7.81501 26.2644 7.90147 26.5879 8.06596 26.8732C8.23046 27.1585 8.46719 27.3954 8.75233 27.5601C9.03748 27.7249 9.36098 27.8116 9.69028 27.8116H30.3097C30.639 27.8116 30.9625 27.7249 31.2477 27.5601C31.5328 27.3954 31.7695 27.1585 31.934 26.8732C32.0985 26.5879 32.185 26.2644 32.1847 25.935C32.1844 25.6057 32.0975 25.2823 31.9325 24.9973L21.6228 7.18571C21.4581 6.90116 21.2214 6.66492 20.9366 6.50069C20.6518 6.33645 20.3288 6.25 20 6.25C19.6712 6.25 19.3482 6.33645 19.0634 6.50069C18.7786 6.66492 18.5419 6.90116 18.3772 7.18571V7.18571Z" stroke="white" stroke-width="2.5" stroke-linecap="round" stroke-linejoin="round"/>
</svg>
